<?xml version="1.0" encoding="utf-8"?>
<!-- Generator: Adobe Illustrator 25.0.1, SVG Export Plug-In . SVG Version: 6.00 Build 0)  -->
<svg version="1.1" id="Layer_1" xmlns="http://www.w3.org/2000/svg" xmlns:xlink="http://www.w3.org/1999/xlink" x="0px" y="0px"
	 viewBox="0 0 55 30" style="enable-background:new 0 0 55 30;" xml:space="preserve">
<style type="text/css">
	.st0{fill:#FFFFFF;stroke:#000000;stroke-width:3;stroke-miterlimit:10;}
	.st1{fill:#FFFFFF;stroke:#000000;stroke-miterlimit:10;}
</style>
<g>
	<path class="st0" d="M41,5.6"/>
	<path class="st0" d="M55.8,11.6"/>
	<path class="st1" d="M55.8,11.6"/>
	<path class="st1" d="M53.5,14.6c-1,0-2,0-3.1,0c-4.5,0-4.5,0-4.6,0c-3.5-0.1-8.5-2.5-10.7-5.8c-2.4-3.6-0.5-6.9,0-7.7"/>
	<path class="st1" d="M35.2,28.1c-0.5-0.8-2.4-4.1,0-7.7c2.2-3.3,7.2-5.7,10.7-5.8c0.1,0,0.1,0,4.6,0c1,0,2,0,3.1,0L1,14.6"/>
	<path class="st1" d="M53,13.6"/>
</g>
</svg>
